<?xml version="1.0" standalone="no"?>
<!DOCTYPE svg PUBLIC "-//W3C//DTD SVG 20010904//EN"
 "http://www.w3.org/TR/2001/REC-SVG-20010904/DTD/svg10.dtd">
<svg version="1.0" xmlns="http://www.w3.org/2000/svg"
 width="1312.000000pt" height="1312.000000pt" viewBox="0 0 1312.000000 1312.000000"
 preserveAspectRatio="xMidYMid meet">
<metadata>
Created by potrace 1.14, written by Peter Selinger 2001-2017
</metadata>
<g transform="translate(0.000000,1312.000000) scale(0.100000,-0.100000)"
fill="#000000" stroke="none">
<path d="M2598 10555 c-1 -2 -28 -6 -58 -10 -116 -14 -138 -18 -240 -46 -41
-12 -79 -22 -85 -23 -5 -1 -16 -5 -22 -9 -7 -5 -13 -6 -13 -3 0 3 -25 -5 -56
-19 -31 -14 -61 -25 -66 -25 -5 0 -56 -22 -114 -50 -58 -27 -109 -50 -115 -50
-5 0 -9 -4 -9 -10 0 -5 -5 -10 -10 -10 -6 0 -40 -18 -76 -40 -36 -22 -70 -40
-75 -40 -5 0 -9 -4 -9 -9 0 -5 -10 -13 -22 -17 -13 -4 -25 -10 -28 -14 -3 -3
-27 -21 -55 -40 -48 -32 -230 -168 -268 -200 -132 -109 -195 -167 -327 -300
-80 -81 -159 -164 -177 -186 -17 -21 -41 -49 -52 -61 -12 -12 -21 -26 -21 -32
0 -5 -4 -11 -9 -13 -5 -1 -44 -50 -85 -108 -42 -58 -79 -109 -84 -115 -4 -5
-19 -29 -32 -52 -13 -24 -27 -43 -32 -43 -4 0 -8 -5 -8 -11 0 -6 -16 -37 -35
-68 -34 -57 -165 -315 -165 -326 0 -3 -8 -25 -19 -48 -35 -80 -112 -307 -126
-372 -2 -11 -10 -45 -18 -75 -8 -30 -18 -73 -22 -95 -5 -22 -9 -44 -10 -50 -7
-31 -35 -232 -42 -300 -15 -150 -7 -619 12 -710 5 -23 16 -106 20 -150 2 -16
4 -30 5 -30 1 0 3 -11 5 -25 6 -48 58 -286 68 -310 5 -13 42 -142 52 -180 12
-48 91 -270 119 -332 9 -21 16 -40 16 -43 0 -22 208 -450 255 -525 14 -22 25
-42 25 -45 0 -11 221 -361 253 -400 4 -5 29 -39 54 -75 26 -36 51 -69 55 -75
5 -5 34 -44 66 -86 32 -42 64 -83 72 -92 8 -8 24 -27 34 -41 11 -15 33 -42 50
-61 17 -18 54 -59 81 -91 156 -180 425 -444 580 -569 20 -16 45 -37 54 -46 9
-9 54 -46 101 -83 47 -36 90 -69 95 -74 6 -4 33 -23 60 -42 28 -19 52 -37 53
-42 2 -4 8 -8 14 -8 6 0 25 -11 42 -24 17 -13 34 -23 37 -22 4 1 15 -6 25 -15
29 -25 263 -159 279 -159 7 0 15 -4 17 -8 3 -7 107 -59 191 -96 20 -9 53 -23
73 -32 98 -43 416 -154 489 -169 11 -3 65 -16 120 -30 55 -14 109 -27 120 -29
11 -2 40 -7 65 -11 25 -5 52 -9 60 -10 8 -1 26 -5 40 -8 14 -3 45 -9 70 -12
25 -3 59 -7 75 -10 17 -2 57 -7 90 -10 33 -4 76 -9 95 -11 19 -2 85 -6 145 -9
61 -2 110 -5 110 -5 0 -1 46 -2 103 -3 56 -1 102 1 102 5 0 4 11 3 24 -2 13
-5 26 -7 28 -4 3 2 51 7 109 10 140 8 184 11 249 18 79 9 220 29 290 41 19 4
46 8 60 10 41 6 326 72 385 89 52 15 91 25 95 25 3 0 32 10 65 21 33 12 65 23
70 24 6 2 24 6 40 11 17 4 35 12 41 16 6 5 19 10 30 12 10 2 36 11 58 20 21 9
42 17 46 17 30 0 528 232 541 252 3 6 8 8 10 6 3 -2 80 40 227 127 40 24 200
130 238 159 23 17 55 40 70 51 51 37 129 98 139 109 6 6 28 24 50 40 22 17 47
37 55 46 8 8 35 32 59 52 43 36 44 37 77 23 19 -8 37 -14 39 -15 3 0 6 0 8 -1
5 -1 33 -8 55 -13 13 -3 32 -8 42 -11 10 -3 27 -8 37 -10 10 -3 38 -9 63 -16
25 -6 52 -12 60 -14 150 -31 222 -45 254 -50 21 -3 41 -7 45 -9 3 -2 29 -7 56
-10 28 -3 66 -8 85 -11 49 -7 106 -14 170 -20 30 -3 73 -8 95 -10 227 -26 777
-25 1015 0 19 2 60 6 90 9 111 11 161 17 300 41 52 9 106 18 120 20 14 2 41 7
60 11 19 3 42 8 50 9 8 1 22 5 30 8 8 3 29 8 45 11 17 3 40 7 53 10 12 3 30 8
40 10 9 3 51 14 92 25 41 12 82 23 91 25 9 2 49 15 90 27 41 13 77 23 81 23 3
1 10 4 14 8 4 5 13 8 20 8 7 0 25 5 41 12 15 6 33 12 38 13 80 18 574 247 630
292 6 5 21 14 35 21 43 21 125 74 131 84 3 5 9 9 13 9 7 -2 21 8 166 116 127
94 164 126 310 273 114 113 193 204 274 315 17 22 35 43 40 47 6 4 7 8 2 8 -5
0 0 10 11 23 29 32 143 228 188 322 37 79 104 231 105 240 1 9 12 40 20 60 7
16 28 86 35 115 0 3 6 21 13 41 12 35 17 55 28 109 3 14 9 41 14 60 5 19 12
50 15 68 3 17 7 47 10 65 3 17 8 46 11 62 30 169 45 533 29 695 -3 36 -8 88
-10 115 -4 50 -7 74 -25 170 -12 66 -15 79 -34 153 -20 77 -73 222 -88 239 -6
7 -7 13 -3 13 4 0 0 11 -8 24 -9 13 -30 50 -48 83 -17 32 -34 60 -38 63 -4 3
-15 18 -24 33 -81 126 -260 278 -427 362 -78 39 -211 90 -256 98 -11 2 -36 11
-58 20 -21 9 -45 17 -52 17 -8 0 -22 4 -32 9 -20 10 -122 41 -160 47 -14 3
-30 8 -36 12 -6 3 -17 7 -26 8 -8 1 -28 5 -45 9 -16 4 -38 7 -47 8 -10 1 -18
5 -18 10 0 4 -4 6 -8 3 -5 -3 -24 -1 -43 4 -19 5 -50 11 -69 14 -19 3 -46 8
-60 11 -14 3 -43 8 -65 10 -22 3 -57 8 -78 11 -21 3 -76 7 -122 9 -46 2 -88 5
-92 7 -7 3 -161 2 -173 -1 -3 -1 -39 -4 -80 -6 -41 -2 -84 -7 -95 -9 -11 -3
-45 -8 -75 -11 -30 -4 -58 -9 -62 -11 -5 -3 -21 -7 -36 -9 -15 -3 -52 -11 -82
-20 -30 -9 -62 -18 -71 -20 -116 -26 -367 -137 -624 -275 -44 -23 -98 -52
-120 -64 -22 -11 -42 -23 -45 -26 -3 -3 -29 -16 -57 -29 -29 -14 -53 -28 -53
-32 0 -4 -12 -10 -27 -14 -16 -3 -36 -14 -47 -23 -10 -9 -20 -16 -22 -15 -2 2
-61 -25 -131 -58 -71 -33 -137 -65 -148 -70 -30 -13 -208 -81 -220 -83 -5 -1
-14 -4 -20 -8 -8 -4 -64 -20 -85 -23 -3 0 -11 -4 -17 -8 -7 -5 -13 -6 -13 -2
0 3 -8 1 -18 -4 -11 -6 -30 -12 -43 -14 -13 -3 -42 -10 -64 -15 -22 -6 -53
-14 -70 -16 -16 -3 -41 -8 -55 -11 -35 -7 -68 -13 -125 -21 -27 -3 -59 -8 -70
-10 -142 -26 -686 -25 -819 2 -31 6 -78 15 -101 19 -11 2 -38 9 -60 15 -22 6
-47 12 -55 14 -85 21 -329 115 -396 152 -24 14 -44 22 -44 18 0 -4 -6 -2 -12
4 -7 5 -40 25 -73 43 -33 18 -73 41 -90 51 -16 10 -42 24 -57 30 -16 7 -28 16
-28 20 0 4 -7 8 -15 8 -8 0 -15 5 -15 10 0 6 -5 10 -10 10 -9 0 -204 126 -235
152 -19 16 -218 163 -234 173 -8 6 -20 15 -26 21 -5 6 -45 39 -88 73 -44 34
-85 67 -92 74 -8 6 -28 23 -45 37 -17 14 -43 36 -59 50 -16 14 -39 34 -53 45
-47 40 -153 130 -158 135 -3 3 -36 32 -75 64 -38 33 -74 64 -80 70 -5 6 -41
38 -80 71 -38 33 -86 74 -105 92 -19 17 -46 41 -60 52 -14 12 -45 39 -70 60
-25 22 -83 72 -130 111 -47 40 -96 82 -110 94 -14 12 -45 37 -70 56 -25 19
-47 37 -50 40 -7 8 -122 100 -161 130 -18 14 -38 31 -45 38 -7 6 -17 12 -22
12 -6 0 -12 4 -14 8 -1 5 -31 28 -65 52 -35 24 -63 48 -63 52 0 4 -4 8 -9 8
-5 0 -71 42 -148 93 -76 50 -152 99 -168 107 -17 8 -32 17 -35 20 -19 19 -318
170 -336 170 -8 0 -14 5 -14 11 0 6 -6 9 -14 6 -8 -3 -16 -2 -18 2 -3 9 -239
91 -313 110 -150 38 -268 53 -452 56 -100 2 -183 2 -185 0z"/>
</g>
</svg>
